# xmcd
#
# Track frame offsets:
# 150
# 18166
# 47472
# 71181
# 90450
# 110888
# 133339
# 168894
# 192145
# 217441
# 235481
#
# Disc length: 3409 seconds
#
#
# Revision: 0
# Processed by: cddbd v1.5.2PL0 Copyright (c) Steve Scherf et al.
# Submitted via: FreeRIP 2.951 
#
DISCID=a20d4f0b
DTITLE=Carlos Café - Carlos Café e Os Mestres Do Blues
DYEAR=2008
DGENRE=Blues
TTITLE0=Sweet Home Chicago
TTITLE1=O Rei Do Blues
TTITLE2=Mustang Sally
TTITLE3=The Sky Is Crying
TTITLE4=A Lenda Do Rei Do Blues
TTITLE5=Red House
TTITLE6=The Thrill Is Gone
TTITLE7=Summertime
TTITLE8=Hoochie Coochie Man
TTITLE9=Collins Boogie
TTITLE10=Johnny Guitarra
EXTD=
EXTT0=
EXTT1=
EXTT2=
EXTT3=
EXTT4=
EXTT5=
EXTT6=
EXTT7=
EXTT8=
EXTT9=
EXTT10=
PLAYORDER=
